<svg xmlns="http://www.w3.org/2000/svg" viewBox="0 0 902.42 504.06"><defs><style>.cls-1{fill:#fff;}.cls-1,.cls-2,.cls-3,.cls-4,.cls-5,.cls-6{stroke:#231f20;stroke-miterlimit:10;}.cls-2{fill:#41b8ea;}.cls-3{fill:#f36e21;}.cls-4{fill:#ec0682;}.cls-5{fill:#87c543;}.cls-6{font-size:25px;fill:#231f20;font-family:TrebuchetMS, Trebuchet MS;}.cls-7{letter-spacing:-0.11em;}</style></defs><g id="Layer_4" data-name="Layer 4"><path class="cls-1" d="M516.71,247.54A251.54,251.54,0,1,0,329,666.45c138.91,0,251.53-112.61,251.53-251.53A250.56,250.56,0,0,0,516.71,247.54ZM329,576.15A161.22,161.22,0,1,1,490.18,414.92,161.07,161.07,0,0,1,329,576.15Z" transform="translate(-76.92 -162.89)"/><path class="cls-2" d="M329,576.15v90.3A251.25,251.25,0,0,1,121.23,556.79l74.57-50.93A161.07,161.07,0,0,0,329,576.15Z" transform="translate(-76.92 -162.89)"/><path class="cls-3" d="M167.73,414.92a160.53,160.53,0,0,0,28.07,90.94l-74.57,50.93a251.62,251.62,0,0,1,97.41-368L258.25,270A161.2,161.2,0,0,0,167.73,414.92Z" transform="translate(-76.92 -162.89)"/><path class="cls-4" d="M516.71,247.54l-67.41,60.1a161.32,161.32,0,0,0-191-37.64l-39.61-81.19a251.72,251.72,0,0,1,298.07,58.73Z" transform="translate(-76.92 -162.89)"/><path class="cls-5" d="M580.49,414.92c0,138.92-112.62,251.53-251.53,251.53v-90.3A161.22,161.22,0,0,0,449.3,307.64l67.41-60.1A250.56,250.56,0,0,1,580.49,414.92Z" transform="translate(-76.92 -162.89)"/><rect class="cls-3" x="639.8" y="142.92" width="42.02" height="42.02" rx="12"/><rect class="cls-2" x="639.8" y="201.65" width="42.02" height="42.02" rx="12"/><rect class="cls-5" x="639.8" y="260.38" width="42.02" height="42.02" rx="12"/><rect class="cls-4" x="639.8" y="319.11" width="42.02" height="42.02" rx="12"/><text class="cls-6" transform="translate(706.33 170.46)">Food and Dining</text><text class="cls-6" transform="translate(706.33 229.19)"><tspan class="cls-7">T</tspan><tspan x="11.77" y="0">ransport</tspan></text><text class="cls-6" transform="translate(706.33 287.92)">Subscriptions</text><text class="cls-6" transform="translate(706.33 346.65)">Shopping</text></g></svg>